<svg preserveAspectRatio="none" width="100%" height="100%" overflow="visible" style="display: block;" viewBox="0 0 24 24" fill="none" xmlns="http://www.w3.org/2000/svg">
<g id="SVG">
<path id="Vector" d="M11.995 16.7858C11.8042 16.7856 11.6213 16.7097 11.4864 16.5747L3.34422 8.43249C3.21709 8.29605 3.14789 8.11561 3.15118 7.92915C3.15447 7.7427 3.23 7.56481 3.36186 7.43294C3.49372 7.30109 3.67161 7.22555 3.85806 7.22226C4.04452 7.21897 4.22497 7.28818 4.3614 7.41531L11.5704 14.6243C11.6262 14.6802 11.6923 14.7245 11.7652 14.7547C11.8381 14.7849 11.9161 14.8005 11.995 14.8005C12.0739 14.8005 12.152 14.7849 12.2249 14.7547C12.2978 14.7245 12.3639 14.6802 12.4196 14.6243L19.6286 7.41531C19.7651 7.28818 19.9455 7.21897 20.132 7.22226C20.3184 7.22555 20.4964 7.30109 20.6282 7.43294C20.7601 7.56481 20.8356 7.7427 20.8389 7.92915C20.8421 8.11561 20.7729 8.29605 20.6458 8.43249L12.5036 16.5747C12.3687 16.7097 12.1858 16.7856 11.995 16.7858Z" fill="var(--fill-0, #047957)"/>
</g>
</svg>
