<svg preserveAspectRatio="none" width="100%" height="100%" overflow="visible" style="display: block;" viewBox="0 0 26 26" fill="none" xmlns="http://www.w3.org/2000/svg">
<g id="88a93a67c9d3dbb7.svg">
<path id="Vector" d="M15.4586 14.3984L18.8416 17.7814C19.1462 18.086 19.1462 18.5798 18.8416 18.8845C18.537 19.1891 18.0431 19.1891 17.7385 18.8845L14.3582 15.5041C13.4283 16.208 12.2713 16.6253 11.0169 16.6253C7.94717 16.6253 5.46 14.1259 5.46 11.0439C5.46 7.95992 7.94672 5.46 11.0169 5.46C14.0871 5.46 16.5738 7.95992 16.5738 11.0439C16.5738 12.3028 16.1588 13.4645 15.4586 14.3984ZM15.0138 11.0439C15.0138 8.81964 13.2237 7.02 11.0169 7.02C8.81014 7.02 7.02 8.81964 7.02 11.0439C7.02 13.266 8.81046 15.0653 11.0169 15.0653C13.2233 15.0653 15.0138 13.266 15.0138 11.0439Z" fill="var(--fill-0, #9B9B9B)"/>
</g>
</svg>
