<svg preserveAspectRatio="none" width="100%" height="100%" overflow="visible" style="display: block;" viewBox="0 0 18 18" fill="none" xmlns="http://www.w3.org/2000/svg">
<g id="arrowLeft-d8300ffab91a2c7833aa05442cb068f880b701212999080f91af602de4911828.svg">
<path id="Vector" d="M10.6987 2.34951C10.8053 2.3496 10.9096 2.38131 10.9983 2.44061C11.0869 2.49992 11.156 2.58418 11.1968 2.68274C11.2376 2.7813 11.2483 2.88974 11.2276 2.99437C11.2067 3.09899 11.1554 3.19512 11.08 3.2706L5.67405 8.67658C5.63216 8.7184 5.59893 8.76803 5.57626 8.82267C5.55358 8.87732 5.54191 8.93586 5.54191 8.995C5.54191 9.05414 5.55358 9.11276 5.57626 9.1674C5.59893 9.22205 5.63216 9.27167 5.67405 9.31342L11.08 14.7194C11.1754 14.8217 11.2273 14.957 11.2248 15.0969C11.2223 15.2367 11.1657 15.3701 11.0668 15.469C10.9679 15.5679 10.8346 15.6245 10.6947 15.6269C10.5549 15.6294 10.4196 15.5775 10.3173 15.4822L4.21326 9.37909C4.17295 9.33973 4.13924 9.29423 4.11341 9.24416C4.06081 9.14237 4.04196 9.02656 4.05959 8.91337C4.07721 8.80011 4.1304 8.69547 4.21146 8.61451L10.3173 2.50782C10.4184 2.40657 10.5556 2.34964 10.6987 2.34951Z" fill="var(--fill-0, #E8C7D1)"/>
</g>
</svg>
