<svg preserveAspectRatio="none" width="100%" height="100%" overflow="visible" style="display: block;" viewBox="0 0 18 18" fill="none" xmlns="http://www.w3.org/2000/svg">
<g id="SVG">
<path id="Vector" d="M0 8.995C0 4.0272 4.0272 0 8.995 0C13.9628 0 17.99 4.0272 17.99 8.995C17.99 13.9628 13.9628 17.99 8.995 17.99C4.0272 17.99 0 13.9628 0 8.995Z" fill="var(--fill-0, #E0E5E3)"/>
<path id="Vector_2" d="M8.99501 0.0200195C4.04776 0.0200195 0.0199966 4.04778 0.0199966 8.99503C0.0199966 13.9423 4.04776 17.97 8.99501 17.97C13.9423 17.97 17.97 13.9423 17.97 8.99503C17.97 4.04778 13.9423 0.0200195 8.99501 0.0200195ZM8.99501 16.8007C4.68741 16.8007 1.18935 13.3026 1.18935 8.99503C1.18935 4.68743 4.68741 1.18937 8.99501 1.18937C13.3026 1.18937 16.8007 4.68743 16.8007 8.99503C16.8007 13.3026 13.3026 16.8007 8.99501 16.8007Z" fill="var(--fill-0, #E0E5E3)"/>
<path id="Vector_3" fill-rule="evenodd" clip-rule="evenodd" d="M6.01077 5.94579C6.36057 4.46662 7.73981 3.38722 9.34892 3.50715C10.908 3.62708 12.1673 4.90637 12.2573 6.46551C12.3472 8.04463 11.2778 9.39388 9.81866 9.73369C9.73871 9.75368 9.67874 9.83363 9.67874 9.91359V11.2428C9.67874 11.5627 9.41888 11.8225 9.09906 11.8225H9.08907C8.76925 11.8225 8.50938 11.5627 8.50938 11.2428V9.19399C8.50938 8.89416 8.74925 8.65429 9.04909 8.65429C10.1285 8.65429 11.0679 7.78477 11.0879 6.70537C11.1079 5.576 10.2084 4.65651 9.08907 4.65651C8.13959 4.65651 7.34003 5.31614 7.14014 6.20565C7.08017 6.4755 6.84031 6.6554 6.57046 6.6554C6.20066 6.6554 5.93081 6.30559 6.01077 5.94579ZM9.86863 13.6415C9.86863 14.0666 9.52409 14.4111 9.09906 14.4111C8.67404 14.4111 8.32949 14.0666 8.32949 13.6415C8.32949 13.2166 8.67404 12.8719 9.09906 12.8719C9.52409 12.8719 9.86863 13.2166 9.86863 13.6415Z" fill="var(--fill-0, #15372C)"/>
</g>
</svg>
