<svg preserveAspectRatio="none" width="100%" height="100%" overflow="visible" style="display: block;" viewBox="0 0 18 18" fill="none" xmlns="http://www.w3.org/2000/svg">
<g id="arrowRight-808e8a193c59fe600df1b664111c8d7205debc9827e76147d1c4f953fb88480d.svg">
<path id="Vector" d="M7.29135 15.6405C7.18468 15.6404 7.08043 15.6087 6.99176 15.5494C6.90309 15.4901 6.834 15.4058 6.79318 15.3072C6.75237 15.2087 6.74168 15.1003 6.76247 14.9956C6.78326 14.891 6.83458 14.7949 6.90997 14.7194L12.316 9.31342C12.3579 9.2716 12.3911 9.22197 12.4138 9.16733C12.4364 9.11268 12.4481 9.05414 12.4481 8.995C12.4481 8.93586 12.4364 8.87724 12.4138 8.8226C12.3911 8.76795 12.3579 8.71833 12.316 8.67658L6.90997 3.27057C6.81463 3.16826 6.76273 3.03294 6.7652 2.89312C6.76767 2.7533 6.82431 2.6199 6.92319 2.52102C7.02207 2.42214 7.15548 2.3655 7.2953 2.36303C7.43512 2.36056 7.57042 2.41246 7.67274 2.50779L13.7767 8.61091C13.8171 8.65027 13.8507 8.69577 13.8766 8.74584C13.9292 8.84763 13.948 8.96344 13.9304 9.07663C13.9128 9.18989 13.8596 9.29453 13.7785 9.37549L7.67274 15.4822C7.57162 15.5834 7.43444 15.6404 7.29135 15.6405Z" fill="var(--fill-0, #15372C)"/>
</g>
</svg>
