<svg preserveAspectRatio="none" width="100%" height="100%" overflow="visible" style="display: block;" viewBox="0 0 14 14" fill="none" xmlns="http://www.w3.org/2000/svg">
<g id="SVG">
<path id="Vector" d="M7.99808 6.82572L11.122 3.70245C11.3949 3.42965 11.3949 2.98686 11.122 2.71336C10.8478 2.44056 10.4051 2.44056 10.1323 2.71336L7.00899 5.83593L3.88642 2.71406C3.61362 2.44126 3.17013 2.44126 2.89733 2.71406C2.62452 2.98686 2.62452 3.42965 2.89733 3.70245L6.0199 6.82572L2.97357 9.87134C2.70077 10.1441 2.70077 10.5876 2.97357 10.8611C3.24778 11.1339 3.69056 11.1339 3.96407 10.8611L7.00969 7.81481L10.056 10.8611C10.3288 11.1339 10.7723 11.1339 11.0451 10.8611C11.3179 10.5883 11.3179 10.1448 11.0451 9.87134L7.99808 6.82572Z" fill="var(--fill-0, #909090)"/>
</g>
</svg>
